<!-- icon666.com - MILLIONS OF FREE VECTOR ICONS --><svg id="Capa_1" enable-background="new 0 0 512 512" viewBox="0 0 512 512" xmlns="http://www.w3.org/2000/svg"><g><path d="m26.27 17.067h459.461v34.133h-459.461z" fill="#e9efff"></path><g><g fill="#3c58a0"><path d="m119.467 91.514-51.2-6.181v-68.85c0-9.103 7.38-16.483 16.483-16.483h18.234c9.103 0 16.483 7.38 16.483 16.483z" fill="#3c58a0"></path><path d="m281.6 91.514h-51.2v-75.514c0-8.837 7.163-16 16-16h19.2c8.837 0 16 7.163 16 16z" fill="#3c58a0"></path><path d="m443.733 85.333-51.2 6.181v-75.031c0-9.103 7.38-16.483 16.483-16.483h18.234c9.103 0 16.483 7.38 16.483 16.483z" fill="#3c58a0"></path></g><path d="m102.984 0h-18.234c-.932 0-1.84.096-2.73.244 7.801 1.303 13.753 8.067 13.753 16.238v72.171l23.694 2.86v-75.03c0-9.103-7.38-16.483-16.483-16.483z" fill="#2a428c" style="fill: rgb(17, 60, 187);"></path><path d="m265.117 0h-18.234c-.932 0-1.84.096-2.73.244 7.801 1.303 13.753 8.067 13.753 16.238v75.031h23.694v-75.03c0-9.103-7.38-16.483-16.483-16.483z" fill="#2a428c" style="fill: rgb(17, 60, 187);"></path><path d="m427.251 0h-18.234c-.932 0-1.84.096-2.73.244 7.801 1.303 13.753 8.067 13.753 16.238v71.711l23.694-2.861v-68.85c-.001-9.102-7.38-16.482-16.483-16.482z" fill="#2a428c" style="fill: rgb(17, 60, 187);"></path></g><path d="m433.729 434.575-41.195 18.725-136.534-26.665-136.537 26.664-41.192-18.724c-6.093-2.77-10.004-8.844-10.004-15.537v-333.705h51.201l136.532 22.321 136.534-22.321h51.199v333.705c0 6.692-3.911 12.767-10.004 15.537z" fill="#4fabf7"></path><path d="m420.039 85.333v344.683c0 5.838-2.978 11.204-7.781 14.318l21.471-9.759c6.093-2.77 10.004-8.845 10.004-15.537v-333.705z" fill="#1886ea"></path><path d="m0 51.2c0 9.426 7.641 17.067 17.067 17.067s17.067-7.641 17.067-17.067v-34.133c-.001-9.426-7.642-17.067-17.067-17.067-9.426 0-17.067 7.641-17.067 17.067z" fill="#ffdd40" style="fill: rgb(66, 255, 98);"></path><path d="m477.867 51.2c0 9.426 7.641 17.067 17.067 17.067s17.067-7.641 17.067-17.067v-34.133c-.001-9.426-7.642-17.067-17.068-17.067s-17.067 7.641-17.067 17.067v34.133z" fill="#ffdd40" style="fill: rgb(66, 255, 98);"></path><path d="m241.876 508.941c8.975 4.079 19.274 4.079 28.249 0l122.408-55.641v-367.967h-273.066v367.967z" fill="#9bd8f9"></path><path d="m68.267 111.74h375.467v15.453h-375.467z" fill="#1886ea"></path><path d="m290.133 196.267v17.067c0 4.713 3.82 8.533 8.533 8.533h4.267c2.356 0 4.267 1.91 4.267 4.267v114.341c0 28.036-22.18 51.518-50.21 52.05-28.683.544-52.19-22.629-52.19-51.191v-115.2c0-2.356 1.91-4.267 4.267-4.267h4.267c4.713 0 8.533-3.82 8.533-8.533v-17.067c0-4.713-3.821-8.533-8.533-8.533h-51.2c-4.713 0-8.533 3.82-8.533 8.533v17.067c0 4.713 3.82 8.533 8.533 8.533h4.267c2.356 0 4.267 1.91 4.267 4.267v114.112c0 46.98 37.514 85.962 84.492 86.417 47.437.46 86.175-37.996 86.175-85.329v-115.2c0-2.356 1.91-4.267 4.267-4.267h4.267c4.713 0 8.533-3.82 8.533-8.533v-17.067c0-4.713-3.82-8.533-8.533-8.533h-51.2c-4.715-.001-8.536 3.82-8.536 8.533z" fill="#e9efff"></path></g></svg>