<!-- icon666.com - MILLIONS OF FREE VECTOR ICONS --><svg id="Layer_1" viewBox="0 0 512 512" xmlns="http://www.w3.org/2000/svg" data-name="Layer 1"><g fill-rule="evenodd"><g fill="#2196f3"><path d="m257.45.1a60.953 60.953 0 1 0 60.95 60.954 61.03 61.03 0 0 0 -60.95-60.954z"></path><path d="m48.52 415.914a7.906 7.906 0 0 0 7.031 5.459l45.57 2.918 16.856 42.438a7.924 7.924 0 0 0 14.734 0l16.857-42.438 45.57-2.918a7.926 7.926 0 0 0 4.56-14.011l-35.158-29.151 11.314-44.233a7.925 7.925 0 0 0 -11.923-8.659l-38.583 24.423-38.59-24.423a7.922 7.922 0 0 0 -11.916 8.659l11.306 44.233-35.148 29.151a7.95 7.95 0 0 0 -2.48 8.552z"></path><path d="m463.493 415.914a7.95 7.95 0 0 0 -2.493-8.553l-35.143-29.15 11.3-44.233a7.917 7.917 0 0 0 -11.916-8.659l-38.584 24.423-38.576-24.423a7.925 7.925 0 0 0 -11.923 8.659l11.314 44.233-35.157 29.151a7.923 7.923 0 0 0 4.545 14.011l45.578 2.918 16.862 42.438a7.919 7.919 0 0 0 14.727 0l16.856-42.438 45.578-2.918a7.922 7.922 0 0 0 7.032-5.459z"></path><path d="m179.165 456.138a7.931 7.931 0 0 0 7.035 5.462l45.578 2.925 16.856 42.43a7.933 7.933 0 0 0 14.741 0l16.857-42.43 45.568-2.925a7.927 7.927 0 0 0 4.552-14.012l-35.15-29.15 11.304-44.238a7.927 7.927 0 0 0 -11.916-8.666l-38.59 24.432-38.576-24.43a7.93 7.93 0 0 0 -11.924 8.664l11.314 44.233-35.157 29.15a7.951 7.951 0 0 0 -2.492 8.555z"></path></g><path d="m257.449 106.079a45.025 45.025 0 1 1 45.017-45.025 45.076 45.076 0 0 1 -45.017 45.025zm0-106.053a61.025 61.025 0 1 0 61.021 61.028 61.1 61.1 0 0 0 -61.021-61.028zm-124.1 199.768c0-19.848 19.168-29.15 35.251-33.458a332.769 332.769 0 0 1 86.062-11.136h1.365a332.361 332.361 0 0 1 87.373 11.136c16.083 4.308 35.251 13.61 35.251 33.458v103.417h-44.534v-86.342a8 8 0 1 0 -16 0v86.342h-124.226v-86.342a8 8 0 1 0 -16 0v86.342h-44.542zm-8 119.413h261.31a8 8 0 0 0 8-8v-111.413c0-23.4-16.733-40.767-47.111-48.9a348.075 348.075 0 0 0 -91.521-11.7 348 348 0 0 0 -91.571 11.7c-30.379 8.138-47.111 25.507-47.111 48.905v111.406a8 8 0 0 0 8 8zm-25.17 68.066a8.015 8.015 0 0 0 2.65-8.138l-7.568-29.585 25.806 16.339a8 8 0 0 0 8.552 0l25.813-16.339-7.573 29.585a8.017 8.017 0 0 0 2.651 8.138l23.512 19.5-30.485 1.951a8 8 0 0 0 -6.916 5.029l-11.274 28.385-11.281-28.388a8 8 0 0 0 -6.917-5.029l-30.478-1.951 23.506-19.5zm-51.729 28.664a7.969 7.969 0 0 0 7.095 5.508l45.525 2.915 16.839 42.395a8 8 0 0 0 14.868 0l16.84-42.395 45.524-2.915a8 8 0 0 0 4.6-14.139l-35.121-29.121 11.303-44.185a8 8 0 0 0 -12.032-8.738l-38.544 24.4-38.547-24.404a7.994 7.994 0 0 0 -12.029 8.742l11.3 44.189-35.12 29.117a8 8 0 0 0 -2.5 8.631zm356.411-7.216a8 8 0 0 0 -6.93 5.029l-11.274 28.385-11.267-28.385a8.015 8.015 0 0 0 -6.93-5.029l-30.486-1.951 23.527-19.5a7.981 7.981 0 0 0 2.637-8.138l-7.559-29.585 25.8 16.339a8.014 8.014 0 0 0 8.559 0l25.806-16.339-7.566 29.585a8 8 0 0 0 2.643 8.138l23.52 19.5-30.479 1.951zm58.7 7.216a8.006 8.006 0 0 0 -2.515-8.631l-35.108-29.121 11.288-44.185a7.989 7.989 0 0 0 -12.024-8.738l-38.545 24.4-38.537-24.4a8 8 0 0 0 -12.032 8.738l11.3 44.189-35.123 29.121a8 8 0 0 0 4.587 14.139l45.532 2.915 16.84 42.395a7.99 7.99 0 0 0 14.86 0l16.84-42.395 45.532-2.915a8 8 0 0 0 7.1-5.508zm-232.726 11.563a7.989 7.989 0 0 0 2.644-8.137l-7.559-29.593 25.8 16.34a8.018 8.018 0 0 0 8.559 0l25.806-16.34-7.566 29.593a8.019 8.019 0 0 0 2.65 8.137l23.513 19.491-30.486 1.95a7.988 7.988 0 0 0 -6.915 5.03l-11.281 28.388-11.274-28.392a8 8 0 0 0 -6.915-5.03l-30.479-1.95 23.5-19.491zm-51.735 28.66a8 8 0 0 1 2.515-8.63l35.122-29.121-11.3-44.189a8 8 0 0 1 12.032-8.745l38.531 24.406 38.552-24.406a8 8 0 0 1 12.024 8.745l-11.3 44.189 35.115 29.121a8 8 0 0 1 -4.594 14.139l-45.517 2.922-16.84 42.388a8.005 8.005 0 0 1 -14.875 0l-16.839-42.388-45.526-2.922a8.012 8.012 0 0 1 -7.1-5.509z"></path></g></svg>