<svg width="215" height="46" viewBox="0 0 215 46" fill="none" xmlns="http://www.w3.org/2000/svg">
<g clip-path="url(#clip0_8_32)">
<path fill-rule="evenodd" clip-rule="evenodd" d="M23.0747 41L23.1281 12.5817H37.3361V5H0V12.5817H14.208V41H23.0747Z" fill="#3C388D"/>
<path fill-rule="evenodd" clip-rule="evenodd" d="M204.733 5H177.546L177.492 40.947H186.412V32.1457H204.68C210.502 32.1457 215.202 27.4798 215.202 21.7009V15.4446C215.255 9.66545 210.555 5 204.733 5V5ZM206.549 24.7232H186.412V12.5819H206.549V24.7232Z" fill="#3C388D"/>
<path fill-rule="evenodd" clip-rule="evenodd" d="M100.257 41H123.385V33.4183H98.6542V12.5817H123.385V5H100.257C94.4345 5 89.7341 9.66568 89.7341 15.4446V30.5552C89.7341 36.3345 94.4347 41 100.257 41Z" fill="#3C388D"/>
<path fill-rule="evenodd" clip-rule="evenodd" d="M66.9981 40.947L86.2034 5H77.0553L65.3472 26.9139L52.3564 5H43.2081L57.1986 28.9979C58.3192 30.9201 60.343 32.0994 62.5297 32.1048L62.5741 32.105L57.8501 40.9472H66.9981V40.947Z" fill="#3C388D"/>
<path fill-rule="evenodd" clip-rule="evenodd" d="M148.411 32.105L148.456 32.1053L143.732 40.9475H152.88L172.085 5.00049H162.937L151.229 26.9144L138.238 5.00049H129.09L143.08 28.9984C144.201 30.9206 146.224 32.0999 148.411 32.1053V32.105Z" fill="#3C388D"/>
</g>
<defs>
<clipPath id="clip0_8_32">
<rect width="215" height="46"/>
</clipPath>
</defs>
</svg>
